<svg width="317" height="178" viewBox="0 0 317 178" fill="none" xmlns="http://www.w3.org/2000/svg">
<g clip-path="url(#clip0_287_6)">
<path d="M121.568 31.3788C102.047 42.2342 84.8529 56.8164 69.7989 73.2322C54.5025 89.9134 41.2668 108.382 28.9112 127.303C21.9318 137.991 15.2239 148.852 8.54833 159.731C9.68417 159.434 10.82 159.136 11.9558 158.838C9.73647 157.819 11.8263 153.449 12.5171 151.912C13.956 148.709 15.8441 145.681 18.11 142.996C22.7488 137.5 28.707 133.218 35.297 130.353C43.0561 126.979 51.6504 125.725 60.0671 125.843C64.4477 125.905 68.8184 126.328 73.1325 127.083C77.6228 127.869 82.025 129.121 86.5575 129.66C91.056 130.195 95.6202 129.8 99.6529 127.604C103.11 125.722 105.937 122.527 106.696 118.598C105.178 118.796 103.661 118.994 102.143 119.192C106.083 127.616 114.552 133.061 123.465 134.986C133.723 137.201 144.068 134.757 153.326 130.167C158.907 127.4 164.067 123.871 168.995 120.082C167.747 119.366 166.497 118.65 165.248 117.933C164.988 126.529 160.921 134.568 154.321 140.049L158.484 141.146C158.08 139.187 159.874 137.51 161.279 136.433C163.408 134.802 165.967 133.715 168.37 132.561C173.877 129.918 179.491 127.508 185.204 125.343C196.685 120.991 208.525 117.582 220.566 115.167C227.358 113.804 234.208 112.765 241.1 112.054L240.437 107.167C228.624 111.433 217.802 117.976 208.569 126.489C207.581 127.401 207.645 129.085 208.569 130.008C209.613 131.049 211.033 130.844 212.092 130.008C221.754 122.376 232.893 116.684 244.699 113.205C243.891 112.992 243.083 112.779 242.275 112.565C243.912 114.461 244.139 117.253 244.489 119.628C244.889 122.354 245.354 125.157 246.874 127.52C249.99 132.364 255.822 134.025 261.262 134.455C273.237 135.402 285.749 131.965 296.05 125.953C301.987 122.489 307.363 118.035 311.821 112.806C313.889 110.381 310.381 106.845 308.298 109.288C300.975 117.878 291.222 124.159 280.377 127.313C275.012 128.874 269.472 129.663 263.883 129.589C259.621 129.533 253.967 129.002 251.29 125.177C249.701 122.906 249.542 119.891 249.134 117.236C248.668 114.205 247.837 111.409 245.798 109.047C245.238 108.398 244.174 108.172 243.375 108.407C230.695 112.144 218.931 118.305 208.569 126.489C209.744 127.663 210.918 128.835 212.092 130.008C220.667 122.101 230.783 115.93 241.761 111.965C242.925 111.545 243.739 110.516 243.546 109.235C243.378 108.12 242.348 106.949 241.1 107.078C214.549 109.818 188.609 117.163 164.618 128.863C159.265 131.474 152.224 135.403 153.68 142.469C154.09 144.46 156.518 144.667 157.844 143.567C165.432 137.266 169.932 127.759 170.229 117.933C170.282 116.209 168.004 114.615 166.481 115.786C158.495 121.925 149.74 127.559 139.812 129.888C131.553 131.826 122.653 130.946 115.327 126.485C111.443 124.121 108.373 120.803 106.445 116.681C105.558 114.785 102.286 115.237 101.892 117.276C101.267 120.512 98.796 122.762 95.7962 123.943C91.8083 125.512 87.3778 124.937 83.2895 124.117C78.6673 123.189 74.1115 122.127 69.427 121.537C64.8653 120.962 60.2572 120.728 55.6624 120.932C39.152 121.668 22.9315 128.304 12.7969 141.731C10.2479 145.108 8.15228 148.9 6.79226 152.914C5.62819 156.352 5.59414 161.367 9.44171 163.135C10.6847 163.706 12.0904 163.48 12.8501 162.242C24.5647 143.151 36.3863 124.088 49.5913 105.977C62.5829 88.1553 77.0166 71.2286 93.801 56.8446C103.173 48.8121 113.289 41.6769 124.082 35.6753C126.884 34.1171 124.374 29.8181 121.568 31.3788Z" fill="#F9DBFF"/>
</g>
<defs>
<clipPath id="clip0_287_6">
<rect width="317" height="178" fill="white"/>
</clipPath>
</defs>
</svg>
